<svg xmlns="http://www.w3.org/2000/svg" viewBox="0 0 24 24" id="pied-piper-pp"><path fill="#378A3B" d="M9.299 5.614c-.381 0-.686.08-.921.225v3.643c.236.134.541.198.921.198.937 0 1.698-.911 1.698-2.041.001-1.12-.76-2.025-1.698-2.025zm4.517 5.613v.001c-.381 0-.686.08-.921.225v3.642c.235.134.541.198.921.198.933 0 1.698-.905 1.698-2.025 0-1.13-.765-2.041-1.698-2.041z"></path><path fill="#378A3B" d="M24 21.429V2.571A2.572 2.572 0 0 0 21.429 0H2.571A2.572 2.572 0 0 0 0 2.571v18.857A2.572 2.572 0 0 0 2.571 24h18.857A2.572 2.572 0 0 0 24 21.429zM8.384 11.695v2.711l-2.775.541V3.895h2.448a3.993 3.993 0 0 1 1.854-.471c2.197 0 3.975 1.908 3.975 4.264s-1.778 4.264-3.975 4.264a4.499 4.499 0 0 1-1.527-.257zm10.012 1.614c0 2.357-1.779 4.264-3.965 4.264-.562 0-1.076-.08-1.537-.251v2.711l-2.775.54v-8.374c1.05-.053 2.035-.525 2.775-1.328a4.379 4.379 0 0 0 1.029-1.79c.171-.027.343-.038.514-.038 2.181 0 3.959 1.906 3.959 4.264v.002z"></path></svg>